<mxfile host="65bd71144e">
    <diagram name="Page-1" id="Hr7U0szw_ZHNtcbhs-hB">
        <mxGraphModel dx="632" dy="607" grid="1" gridSize="10" guides="1" tooltips="1" connect="1" arrows="1" fold="1" page="1" pageScale="1" pageWidth="850" pageHeight="1100" math="0" shadow="0">
            <root>
                <mxCell id="0"/>
                <mxCell id="1" parent="0"/>
                <mxCell id="O0XMRERPeqzczdfICCTu-3" value="" style="edgeStyle=orthogonalEdgeStyle;rounded=0;orthogonalLoop=1;jettySize=auto;html=1;" parent="1" source="O0XMRERPeqzczdfICCTu-1" target="O0XMRERPeqzczdfICCTu-2" edge="1">
                    <mxGeometry relative="1" as="geometry"/>
                </mxCell>
                <mxCell id="O0XMRERPeqzczdfICCTu-1" value="Start" style="rounded=1;whiteSpace=wrap;html=1;" parent="1" vertex="1">
                    <mxGeometry x="50" y="40" width="90" height="40" as="geometry"/>
                </mxCell>
                <mxCell id="O0XMRERPeqzczdfICCTu-5" value="" style="edgeStyle=orthogonalEdgeStyle;rounded=0;orthogonalLoop=1;jettySize=auto;html=1;entryX=0.5;entryY=0;entryDx=0;entryDy=0;" parent="1" source="O0XMRERPeqzczdfICCTu-2" target="11" edge="1">
                    <mxGeometry relative="1" as="geometry">
                        <mxPoint x="110" y="310" as="targetPoint"/>
                    </mxGeometry>
                </mxCell>
                <mxCell id="O0XMRERPeqzczdfICCTu-2" value="&lt;div&gt;Print &quot;Hello student, please input your&lt;/div&gt;&lt;div&gt;&amp;nbsp;name and the class you wish the know&lt;/div&gt;&lt;div&gt;&amp;nbsp;the room of&quot;&lt;/div&gt;&lt;div&gt;&lt;br&gt;&lt;/div&gt;&lt;div&gt;Input1= Name&lt;/div&gt;&lt;div&gt;Input2= Class&lt;/div&gt;" style="shape=parallelogram;perimeter=parallelogramPerimeter;whiteSpace=wrap;html=1;fixedSize=1;" parent="1" vertex="1">
                    <mxGeometry x="10" y="110" width="250" height="120" as="geometry"/>
                </mxCell>
                <mxCell id="O0XMRERPeqzczdfICCTu-10" value="True" style="edgeStyle=orthogonalEdgeStyle;rounded=0;orthogonalLoop=1;jettySize=auto;html=1;exitX=0.5;exitY=1;exitDx=0;exitDy=0;entryX=0.5;entryY=0;entryDx=0;entryDy=0;" parent="1" target="O0XMRERPeqzczdfICCTu-9" edge="1">
                    <mxGeometry relative="1" as="geometry">
                        <mxPoint x="135" y="390" as="sourcePoint"/>
                        <mxPoint x="135" y="460" as="targetPoint"/>
                    </mxGeometry>
                </mxCell>
                <mxCell id="O0XMRERPeqzczdfICCTu-12" value="" style="edgeStyle=orthogonalEdgeStyle;rounded=0;orthogonalLoop=1;jettySize=auto;html=1;" parent="1" source="O0XMRERPeqzczdfICCTu-9" target="O0XMRERPeqzczdfICCTu-11" edge="1">
                    <mxGeometry relative="1" as="geometry"/>
                </mxCell>
                <mxCell id="O0XMRERPeqzczdfICCTu-9" value="&lt;div&gt;Display &quot;Hi (Name),&lt;/div&gt;&lt;div&gt;&amp;nbsp;go to room (Room)&amp;nbsp;&lt;/div&gt;&lt;div&gt;for (Class)&quot;&lt;/div&gt;" style="shape=parallelogram;perimeter=parallelogramPerimeter;whiteSpace=wrap;html=1;fixedSize=1;" parent="1" vertex="1">
                    <mxGeometry x="62.5" y="460" width="145" height="80" as="geometry"/>
                </mxCell>
                <mxCell id="O0XMRERPeqzczdfICCTu-11" value="End" style="rounded=1;whiteSpace=wrap;html=1;" parent="1" vertex="1">
                    <mxGeometry x="97.5" y="580" width="75" height="40" as="geometry"/>
                </mxCell>
                <mxCell id="8" value="" style="edgeStyle=orthogonalEdgeStyle;html=1;entryX=1;entryY=0.5;entryDx=0;entryDy=0;" edge="1" parent="1" source="4" target="O0XMRERPeqzczdfICCTu-11">
                    <mxGeometry relative="1" as="geometry">
                        <mxPoint x="310" y="490" as="targetPoint"/>
                        <Array as="points">
                            <mxPoint x="310" y="600"/>
                        </Array>
                    </mxGeometry>
                </mxCell>
                <mxCell id="4" value="Display &quot;I don't know which&lt;br&gt;room that class is in&quot;" style="shape=parallelogram;perimeter=parallelogramPerimeter;whiteSpace=wrap;html=1;fixedSize=1;" vertex="1" parent="1">
                    <mxGeometry x="220" y="350" width="180" height="60" as="geometry"/>
                </mxCell>
                <mxCell id="10" value="" style="group" vertex="1" connectable="0" parent="1">
                    <mxGeometry x="300" y="20" width="280" height="150" as="geometry"/>
                </mxCell>
                <mxCell id="O0XMRERPeqzczdfICCTu-17" value="List of classes" style="swimlane;fontStyle=0;childLayout=stackLayout;horizontal=1;startSize=30;horizontalStack=0;resizeParent=1;resizeParentMax=0;resizeLast=0;collapsible=1;marginBottom=0;whiteSpace=wrap;html=1;" parent="10" vertex="1">
                    <mxGeometry y="30" width="160" height="120" as="geometry"/>
                </mxCell>
                <mxCell id="O0XMRERPeqzczdfICCTu-18" value="1- ICT" style="text;strokeColor=none;fillColor=none;align=left;verticalAlign=middle;spacingLeft=4;spacingRight=4;overflow=hidden;points=[[0,0.5],[1,0.5]];portConstraint=eastwest;rotatable=0;whiteSpace=wrap;html=1;" parent="O0XMRERPeqzczdfICCTu-17" vertex="1">
                    <mxGeometry y="30" width="160" height="30" as="geometry"/>
                </mxCell>
                <mxCell id="O0XMRERPeqzczdfICCTu-19" value="2- Chemistry" style="text;strokeColor=none;fillColor=none;align=left;verticalAlign=middle;spacingLeft=4;spacingRight=4;overflow=hidden;points=[[0,0.5],[1,0.5]];portConstraint=eastwest;rotatable=0;whiteSpace=wrap;html=1;" parent="O0XMRERPeqzczdfICCTu-17" vertex="1">
                    <mxGeometry y="60" width="160" height="30" as="geometry"/>
                </mxCell>
                <mxCell id="O0XMRERPeqzczdfICCTu-20" value="3- Megatronics" style="text;strokeColor=none;fillColor=none;align=left;verticalAlign=middle;spacingLeft=4;spacingRight=4;overflow=hidden;points=[[0,0.5],[1,0.5]];portConstraint=eastwest;rotatable=0;whiteSpace=wrap;html=1;" parent="O0XMRERPeqzczdfICCTu-17" vertex="1">
                    <mxGeometry y="90" width="160" height="30" as="geometry"/>
                </mxCell>
                <mxCell id="O0XMRERPeqzczdfICCTu-21" value="List of rooms" style="swimlane;fontStyle=0;childLayout=stackLayout;horizontal=1;startSize=30;horizontalStack=0;resizeParent=1;resizeParentMax=0;resizeLast=0;collapsible=1;marginBottom=0;whiteSpace=wrap;html=1;" parent="10" vertex="1">
                    <mxGeometry x="160" y="30" width="120" height="120" as="geometry"/>
                </mxCell>
                <mxCell id="O0XMRERPeqzczdfICCTu-22" value="313" style="text;strokeColor=none;fillColor=none;align=left;verticalAlign=middle;spacingLeft=4;spacingRight=4;overflow=hidden;points=[[0,0.5],[1,0.5]];portConstraint=eastwest;rotatable=0;whiteSpace=wrap;html=1;" parent="O0XMRERPeqzczdfICCTu-21" vertex="1">
                    <mxGeometry y="30" width="120" height="30" as="geometry"/>
                </mxCell>
                <mxCell id="O0XMRERPeqzczdfICCTu-23" value="578" style="text;strokeColor=none;fillColor=none;align=left;verticalAlign=middle;spacingLeft=4;spacingRight=4;overflow=hidden;points=[[0,0.5],[1,0.5]];portConstraint=eastwest;rotatable=0;whiteSpace=wrap;html=1;" parent="O0XMRERPeqzczdfICCTu-21" vertex="1">
                    <mxGeometry y="60" width="120" height="30" as="geometry"/>
                </mxCell>
                <mxCell id="O0XMRERPeqzczdfICCTu-24" value="101" style="text;strokeColor=none;fillColor=none;align=left;verticalAlign=middle;spacingLeft=4;spacingRight=4;overflow=hidden;points=[[0,0.5],[1,0.5]];portConstraint=eastwest;rotatable=0;whiteSpace=wrap;html=1;" parent="O0XMRERPeqzczdfICCTu-21" vertex="1">
                    <mxGeometry y="90" width="120" height="30" as="geometry"/>
                </mxCell>
                <mxCell id="9" value="Dictionary" style="whiteSpace=wrap;html=1;" vertex="1" parent="10">
                    <mxGeometry width="280" height="30" as="geometry"/>
                </mxCell>
                <mxCell id="12" value="False" style="edgeStyle=elbowEdgeStyle;html=1;" edge="1" parent="1" source="11" target="4">
                    <mxGeometry relative="1" as="geometry"/>
                </mxCell>
                <mxCell id="11" value="Check if Class&lt;br&gt;exist in dictionary" style="rhombus;whiteSpace=wrap;html=1;" vertex="1" parent="1">
                    <mxGeometry x="75" y="270" width="120" height="120" as="geometry"/>
                </mxCell>
            </root>
        </mxGraphModel>
    </diagram>
</mxfile>